<svg width="1024" height="1121" viewBox="0 0 1024 1121" fill="none" xmlns="http://www.w3.org/2000/svg">
<path fill-rule="evenodd" clip-rule="evenodd" d="M782.129 380.601C781.69 384.122 780.56 387.523 778.806 390.607C777.051 393.692 774.706 396.401 771.904 398.578C769.102 400.756 765.898 402.36 762.476 403.299C759.054 404.238 755.48 404.493 751.959 404.049L643.118 390.454C628.883 388.664 614.446 391.401 601.854 398.276C589.262 405.151 579.154 415.816 572.963 428.758L594.846 431.279L755.32 431.279C762.399 431.402 769.147 434.301 774.111 439.351C779.074 444.401 781.855 451.198 781.855 458.279C781.855 465.36 779.074 472.157 774.111 477.207C769.147 482.258 762.399 485.156 755.32 485.279H594.846L572.944 487.819C579.139 500.761 589.251 511.424 601.847 518.296C614.443 525.168 628.882 527.9 643.118 526.104L751.978 512.49C759.001 511.77 766.026 513.829 771.549 518.225C777.072 522.622 780.654 529.006 781.528 536.011C782.401 543.016 780.497 550.085 776.223 555.703C771.949 561.321 765.645 565.043 758.661 566.07L649.801 579.685C621.232 583.252 592.319 576.638 568.143 561.003C543.967 545.369 526.073 521.715 517.607 494.197L285.565 520.968C276.723 521.994 267.764 521.137 259.276 518.455C250.788 515.773 242.964 511.326 236.317 505.405C229.67 499.485 224.351 492.225 220.708 484.103C217.066 475.981 215.183 467.18 215.183 458.279C215.183 449.378 217.066 440.577 220.708 432.455C224.351 424.333 229.67 417.074 236.317 411.153C242.964 405.233 250.788 400.785 259.276 398.103C267.764 395.421 276.723 394.565 285.565 395.59L517.607 422.362C526.073 394.844 543.967 371.189 568.143 355.555C592.319 339.921 621.232 333.306 649.801 336.873L758.68 350.469C765.785 351.361 772.245 355.039 776.638 360.693C781.032 366.347 783.019 373.496 782.129 380.601Z" fill="#E67B5B" style="fill:#E67B5B;fill:color(display-p3 0.9020 0.4824 0.3569);fill-opacity:1;"/>
<path d="M432.311 271.761C429.86 270.834 427.078 271.43 425.223 273.219C424.693 273.682 412.9 284.945 393.091 275.007C379.51 268.184 355.991 264.142 334.261 275.007C305.84 289.317 295.836 325.291 311.538 356.826C314.055 361.861 317.036 366.234 320.415 370.142C318.494 379.417 317.434 389.62 317.434 400.75H330.684C330.684 393.131 331.148 386.307 332.075 380.08C336.514 382.796 341.284 384.85 346.451 386.043C350.824 387.103 355.196 387.5 359.503 387.5C375.601 387.5 390.243 381.14 397.398 375.774C409.455 366.698 419.393 358.085 429.198 336.752C438.473 316.414 436.618 279.115 436.485 277.525C436.412 276.257 435.973 275.037 435.22 274.014C434.468 272.991 433.434 272.208 432.245 271.761H432.311ZM417.206 331.254C408.66 349.87 400.71 356.76 389.514 365.24C382.226 370.739 365.001 376.834 349.565 373.19C344.133 371.931 339.296 369.48 335.056 366.035C347.313 322.376 382.028 321.449 383.75 321.449V308.199C382.624 308.199 360.629 308.464 342.079 326.947C334.725 334.235 329.16 343.377 325.053 354.11C324.456 353.116 323.926 352.122 323.396 351.062C312.465 329.2 315.844 299.255 340.224 286.932C347.909 283.09 355.925 281.566 363.345 281.566C372.62 281.566 381.1 283.885 387.129 286.932C402.764 294.75 415.219 293.027 423.434 289.715C423.301 301.64 422.241 320.19 417.14 331.386L417.206 331.254Z" fill="#7D9668" style="fill:#7D9668;fill:color(display-p3 0.4902 0.5882 0.4078);fill-opacity:1;"/>
</svg>
